# xmcd
#
# Track frame offsets:
#	150
#	10627
#	21996
#	33069
#	42263
#	51200
#	59152
#	65725
#	75832
#	83373
#	94456
#	101178
#
# Disc length: 1436 seconds
#
# Revision: 0
# Processed by: cddbd v1.4PL0 Copyright (c) Steve Scherf et al.
# Submitted via: EasyCDDAExtractor 4.6.0.1
#
DISCID=91059a0c
DTITLE=Dan Taylor - Danny Taylor's Garage Music
DYEAR=1900
DGENRE=
TTITLE0=Am I Blue
TTITLE1=Musktrat Ramble
TTITLE2=I'll String Along With You
TTITLE3=Birth of T he Blues
TTITLE4=Bobby McGee
TTITLE5=After You've Gone
TTITLE6=Guitar Rag
TTITLE7=I'll See You in My Dreams
TTITLE8=Rock-A-Bye Rag
TTITLE9=Dreaming of You
TTITLE10=Eight More Miles to L'Ville
TTITLE11=Nine Pound Hammer
EXTD=
EXTT0=
EXTT1=
EXTT2=
EXTT3=
EXTT4=
EXTT5=
EXTT6=
EXTT7=
EXTT8=
EXTT9=
EXTT10=
EXTT11=
PLAYORDER=
